<svg id="Layer_1" width="155" height="26" data-name="Layer 1" xmlns="http://www.w3.org/2000/svg" viewBox="0 0 80.59 17.91"><defs><style>.cls-1{fill:#fff;}.cls-2{fill:#f16722;}.cls-3{fill:none;stroke:#fff;stroke-miterlimit:10;}</style></defs><path class="cls-1" d="M49.12,12.07,46.73,9.68C48,8.26,49.36,6.91,51.39,6.49A6.51,6.51,0,0,1,59.16,13a6.38,6.38,0,0,1-5.54,6.25,6.2,6.2,0,0,1-5.48-1.78c-2.24-2.23-4.47-4.49-6.72-6.73A3.09,3.09,0,1,0,37,15a3,3,0,0,0,4.23.17c.54-.48,1-1,1.5-1.56l2.42,2.43c-1.33,1.48-2.76,2.91-4.93,3.21a6.48,6.48,0,1,1-1.8-12.83,6.25,6.25,0,0,1,5.43,1.9C46,10.54,48.23,12.77,50.44,15a3.1,3.1,0,1,0,.12-4.38C50.07,11.08,49.6,11.59,49.12,12.07Z" transform="translate(-19.95 -1.42)"/><path class="cls-2" d="M64.68,2.09c0-.47-.28-.67-.56-.67s-.42.14-3,2.78a.83.83,0,0,0-.22.62c0,2.7,0,5.4,0,8.1v4.76c0,.89.4,1.44,1.12,1.44h2.56Z" transform="translate(-19.95 -1.42)"/><path class="cls-2" d="M94.92,19.19l-1,0a2.21,2.21,0,0,1-2.28-2.3c0-1.41,0-2.83,0-4.25a2.81,2.81,0,0,0-1.84-2.75,3,3,0,0,0-3.34.55,2.88,2.88,0,0,0-1,2.27c0,1.39,0,2.79,0,4.18a2.26,2.26,0,0,1-2.31,2.31c-1-.06-1,0-1-1,0-1.95,0-3.89,0-5.84a6.33,6.33,0,0,1,12.56-.77c0,.2.07.4.11.6Z" transform="translate(-19.95 -1.42)"/><path class="cls-2" d="M70.53,13.62A3,3,0,0,0,73,15.82a6.8,6.8,0,0,0,.9.06H77.7a2.18,2.18,0,0,1,2.2,2c0,.32,0,.65,0,1s-.09.28-.3.28c-2.21,0-4.42.07-6.63,0a6.3,6.3,0,0,1-5.72-4.75,6.44,6.44,0,1,1,12.61-2.49,6.78,6.78,0,0,1,0,.9.72.72,0,0,1-.83.81c-1,0-1.92,0-2.88,0H70.53Zm0-1.78h5.88a3.06,3.06,0,0,0-5.88,0Z" transform="translate(-19.95 -1.42)"/><path class="cls-2" d="M28.93,13.81c-1-1.18-1.57-1.34-.9-2S32.6,7.58,32.6,7.58a3.14,3.14,0,0,0,.23-.29A.61.61,0,0,0,33,6.92a.62.62,0,0,0-.62-.62H29a.59.59,0,0,0-.55.18c-1.3,1.32-2.67,2.55-4,3.86l-.65.69c0-2.57,0-8.8,0-8.89,0-.38-.11-.52-.45-.52a.61.61,0,0,0-.47.23s-2.3,2-2.72,2.42A.87.87,0,0,0,20,4.9c0,2.71.07,5.82.07,8.53C20,15,20,16.38,20,18c0,.89.35,1.29,1.15,1.29h2.69v-5c.15.16,2.91,3,4,4.15.57.57.77.89,1.61.89h4.1S33.6,19.21,28.93,13.81Z" transform="translate(-19.95 -1.42)"/><path class="cls-1" d="M97.5,5.3h1.06a.6.6,0,0,1,.24,0,.42.42,0,0,1,.18.11.57.57,0,0,1,.12.18.65.65,0,0,1,0,.2.56.56,0,0,1-.08.3.46.46,0,0,1-.23.2h0l.13.07a.31.31,0,0,1,.08.11.5.5,0,0,1,0,.13.77.77,0,0,1,0,.15s0,.07,0,.11a.62.62,0,0,0,0,.13.5.5,0,0,0,0,.12.23.23,0,0,0,0,.1h-.43l0-.1s0-.08,0-.12a.49.49,0,0,1,0-.12s0-.09,0-.13a.34.34,0,0,0-.09-.22.3.3,0,0,0-.23-.07h-.43v.76H97.5Zm.44.89h.47a.29.29,0,0,0,.22-.07.26.26,0,0,0,.08-.21.27.27,0,0,0-.08-.21.34.34,0,0,0-.22-.06h-.47Z" transform="translate(-19.95 -1.42)"/><circle class="cls-3" cx="78.37" cy="4.88" r="1.72"/></svg>