<svg width="155" height="26" id="Layer_1" data-name="Layer 1" xmlns="http://www.w3.org/2000/svg" viewBox="0 0 99.96 22.32"><defs><style>.cls-1{fill:#ff671d;}.cls-2{fill:none;stroke:#000;stroke-miterlimit:10;stroke-width:0.25px;}</style></defs><path fill="white" d="M63.94,15.12l-3-3c1.62-1.76,3.29-3.45,5.82-4a8.11,8.11,0,0,1,9.68,8.11,8,8,0,0,1-6.9,7.8,7.78,7.78,0,0,1-6.83-2.22c-2.8-2.79-5.58-5.6-8.37-8.39a3.86,3.86,0,1,0-5.59,5.32A3.82,3.82,0,0,0,54,19c.68-.61,1.27-1.31,1.87-1.94l3,3c-1.66,1.84-3.44,3.62-6.15,4a8.07,8.07,0,1,1-2.25-16,7.8,7.8,0,0,1,6.78,2.36c2.77,2.76,5.51,5.54,8.28,8.3a3.86,3.86,0,1,0,.14-5.45C65.12,13.88,64.54,14.51,63.94,15.12Z" transform="translate(-27.58 -1.84)"/><path class="cls-1" d="M83.33,2.68c0-.59-.34-.84-.7-.84-.21,0-.52.17-3.67,3.46a1,1,0,0,0-.28.78q0,5.05,0,10.09v5.94c0,1.1.5,1.79,1.39,1.79h3.19Z" transform="translate(-27.58 -1.84)"/><path class="cls-1" d="M121,24c-.41,0-.83,0-1.25,0a2.75,2.75,0,0,1-2.85-2.86c0-1.76,0-3.53,0-5.3a3.5,3.5,0,0,0-2.28-3.43,3.71,3.71,0,0,0-4.17.69,3.56,3.56,0,0,0-1.22,2.83c0,1.73,0,3.47,0,5.2A2.8,2.8,0,0,1,106.38,24c-1.18-.07-1.18,0-1.18-1.21,0-2.42,0-4.85,0-7.27a7.88,7.88,0,0,1,15.65-1c0,.25.09.5.13.75Z" transform="translate(-27.58 -1.84)"/><path class="cls-1" d="M90.62,17a3.78,3.78,0,0,0,3,2.75,8.27,8.27,0,0,0,1.11.07h4.81a2.68,2.68,0,0,1,2.73,2.54c0,.4,0,.8,0,1.21s-.11.34-.38.34c-2.75,0-5.51.09-8.25,0A7.84,7.84,0,0,1,86.55,18a8,8,0,1,1,15.72-3.11,10.49,10.49,0,0,1,0,1.12.91.91,0,0,1-1,1H90.62Zm0-2.22H98a3.81,3.81,0,0,0-7.33,0Z" transform="translate(-27.58 -1.84)"/><path class="cls-1" d="M38.77,17.28c-1.27-1.47-2-1.66-1.12-2.5.68-.68,5.69-5.27,5.69-5.27a2.7,2.7,0,0,0,.3-.36.81.81,0,0,0,.15-.46A.78.78,0,0,0,43,7.91h-.32s-2.53,0-3.8,0a.72.72,0,0,0-.69.23c-1.63,1.64-3.33,3.17-5,4.8-.12.11-.64.68-.81.87,0-3.21,0-11,0-11.09,0-.47-.14-.65-.57-.65a.73.73,0,0,0-.58.29s-2.86,2.46-3.39,3a1.08,1.08,0,0,0-.31.79c0,3.38.08,7.26.08,10.63,0,2,0,3.69,0,5.64,0,1.11.44,1.61,1.43,1.61h3.36s0-4.66,0-6.28c.19.19,3.63,3.78,5,5.17.7.71,1,1.11,2,1.11h5.11S44.59,24,38.77,17.28Z" transform="translate(-27.58 -1.84)"/><path d="M124.25,6.68h1.32a.65.65,0,0,1,.29.05.61.61,0,0,1,.23.15.6.6,0,0,1,.14.21.58.58,0,0,1,0,.26.7.7,0,0,1-.09.37.54.54,0,0,1-.29.24h0l.16.08a.76.76,0,0,1,.11.14l.06.17a1.1,1.1,0,0,1,0,.18.61.61,0,0,1,0,.14c0,.05,0,.11,0,.16l0,.15a.26.26,0,0,0,.06.13h-.54a.5.5,0,0,1,0-.13s0-.09,0-.14,0-.11,0-.16,0-.11,0-.15a.46.46,0,0,0-.11-.28.4.4,0,0,0-.29-.09h-.54v.95h-.54Zm.54,1.1h.59a.36.36,0,0,0,.27-.08.34.34,0,0,0,.1-.27.35.35,0,0,0-.1-.26.41.41,0,0,0-.27-.08h-.59Z" transform="translate(-27.58 -1.84)"/><circle class="cls-2" cx="97.69" cy="6.08" r="2.14"/></svg>